<?xml version="1.0" encoding="UTF-8"?>
<svg id="_레이어_2" data-name="레이어 2" xmlns="http://www.w3.org/2000/svg" viewBox="0 0 445.71 99.81">
  <defs>
    <style>
      .cls-1 {
        stroke-width: 0px;
      }
    </style>
  </defs>
  <g id="_레이어_1-2" data-name="레이어 1">
    <rect class="cls-1" x="7.95" y="0" width="32.03" height="7.95"/>
    <rect class="cls-1" x="7.95" y="25.17" width="32.03" height="7.95"/>
    <rect class="cls-1" x="-26.79" y="26.8" width="61.53" height="7.95" transform="translate(-26.8 34.74) rotate(-90)"/>
    <path class="cls-1" d="M79.44,46.7c-4.08,4.08-9.72,6.61-15.93,6.61-12.43,0-22.55-10.11-22.55-22.55s10.11-22.55,22.55-22.55c6.07,0,11.77,2.44,15.94,6.61l5.81-5.81C79.69,3.45,72,0,63.51,0,46.52,0,32.75,13.78,32.75,30.77s13.77,30.76,30.76,30.76c8.49,0,16.19-3.44,21.75-9.01l-5.82-5.82Z"/>
    <path class="cls-1" d="M73.29,40.27c-2.43,2.43-5.8,3.94-9.5,3.94-7.41,0-13.45-6.03-13.45-13.45s6.03-13.45,13.45-13.45c3.62,0,7.02,1.46,9.51,3.94l3.47-3.47c-3.32-3.32-7.91-5.38-12.97-5.38-10.13,0-18.35,8.21-18.35,18.35s8.21,18.35,18.35,18.35c5.07,0,9.65-2.05,12.97-5.37l-3.47-3.47Z"/>
    <g>
      <path class="cls-1" d="M110.16,24.47V4.53h-6.76v-2.37h16.35v2.37h-6.76v19.94h-2.83Z"/>
      <path class="cls-1" d="M127.39,24.87c-1.48,0-2.82-.35-4.02-1.04-1.2-.69-2.15-1.68-2.85-2.97-.7-1.29-1.05-2.84-1.05-4.64,0-1.36.2-2.57.61-3.64s.96-1.98,1.66-2.74,1.5-1.34,2.39-1.74c.89-.4,1.81-.59,2.74-.59,1.42,0,2.62.31,3.59.94.97.63,1.72,1.53,2.24,2.69.52,1.17.78,2.54.78,4.13,0,.3-.01.59-.03.85-.02.26-.05.51-.09.73h-11.14c.06,1.18.33,2.2.81,3.06.48.86,1.11,1.53,1.9,2.01.79.48,1.71.72,2.77.72.81,0,1.55-.12,2.21-.35.66-.23,1.3-.55,1.93-.96l.97,1.86c-.71.47-1.51.86-2.41,1.19-.89.32-1.9.49-3.01.49ZM122.18,14.88h8.86c0-1.66-.36-2.94-1.08-3.82-.72-.88-1.73-1.32-3.03-1.32-.77,0-1.5.2-2.18.61-.68.41-1.25.98-1.71,1.74-.46.75-.75,1.69-.87,2.8Z"/>
      <path class="cls-1" d="M141.39,24.87c-1.16,0-2.28-.22-3.36-.65-1.09-.44-2.01-.98-2.79-1.63l1.34-1.86c.73.59,1.48,1.07,2.25,1.43.77.37,1.65.55,2.65.55,1.1,0,1.91-.25,2.45-.75.54-.5.81-1.11.81-1.84,0-.57-.19-1.04-.56-1.42-.38-.38-.85-.7-1.43-.97-.58-.27-1.17-.52-1.78-.75-.77-.3-1.53-.64-2.27-1.02-.74-.38-1.35-.86-1.83-1.46-.48-.6-.72-1.36-.72-2.3s.22-1.69.67-2.39c.45-.7,1.1-1.26,1.95-1.67.85-.42,1.88-.62,3.08-.62,1.01,0,1.96.18,2.85.55.88.37,1.64.81,2.27,1.34l-1.34,1.74c-.57-.41-1.15-.75-1.75-1.04-.6-.28-1.26-.43-1.99-.43-1.06,0-1.83.24-2.33.72-.5.48-.75,1.04-.75,1.69,0,.51.17.93.5,1.28.33.35.78.63,1.32.87.55.23,1.13.47,1.74.72.61.22,1.21.47,1.81.73.6.26,1.14.58,1.61.94.48.37.86.82,1.16,1.35.29.54.44,1.2.44,1.99,0,.89-.23,1.72-.69,2.47-.46.75-1.13,1.35-2.01,1.78s-1.98.65-3.3.65Z"/>
      <path class="cls-1" d="M155.25,24.87c-1.16,0-2.08-.23-2.77-.69-.69-.46-1.18-1.1-1.48-1.93-.29-.83-.44-1.8-.44-2.89v-9.16h-2.47v-2.1l2.62-.15.3-4.66h2.31v4.66h4.51v2.25h-4.51v9.26c0,.99.19,1.77.56,2.33.38.56,1.04.84,1.99.84.3,0,.63-.05.97-.14s.65-.2.91-.32l.55,2.1c-.47.16-.96.3-1.49.43-.53.12-1.06.18-1.58.18Z"/>
      <path class="cls-1" d="M167.21,24.87c-1.48,0-2.82-.35-4.02-1.04-1.2-.69-2.15-1.68-2.85-2.97-.7-1.29-1.05-2.84-1.05-4.64,0-1.36.2-2.57.61-3.64s.96-1.98,1.66-2.74,1.5-1.34,2.39-1.74c.89-.4,1.81-.59,2.74-.59,1.42,0,2.62.31,3.59.94.97.63,1.72,1.53,2.24,2.69.52,1.17.78,2.54.78,4.13,0,.3-.01.59-.03.85-.02.26-.05.51-.09.73h-11.14c.06,1.18.33,2.2.81,3.06.48.86,1.11,1.53,1.9,2.01.79.48,1.71.72,2.77.72.81,0,1.55-.12,2.21-.35.66-.23,1.3-.55,1.93-.96l.97,1.86c-.71.47-1.51.86-2.41,1.19-.89.32-1.9.49-3.01.49ZM162.01,14.88h8.86c0-1.66-.36-2.94-1.08-3.82-.72-.88-1.73-1.32-3.03-1.32-.77,0-1.5.2-2.18.61-.68.41-1.25.98-1.71,1.74-.46.75-.75,1.69-.87,2.8Z"/>
      <path class="cls-1" d="M182.53,24.87c-1.38,0-2.58-.33-3.61-1-1.03-.67-1.82-1.65-2.38-2.94s-.84-2.86-.84-4.7.33-3.33,1-4.63c.67-1.3,1.55-2.3,2.63-3.01,1.09-.71,2.26-1.07,3.52-1.07.97,0,1.81.17,2.51.5s1.42.81,2.15,1.42l-.15-2.83V.24h2.8v24.24h-2.28l-.24-1.95h-.09c-.65.65-1.4,1.2-2.25,1.66-.85.46-1.78.69-2.77.69ZM183.14,22.52c.77,0,1.5-.19,2.19-.56.69-.38,1.37-.94,2.04-1.69v-8.68c-.69-.63-1.36-1.08-2.01-1.34-.65-.26-1.32-.4-2.01-.4-.87,0-1.67.27-2.39.81-.72.54-1.3,1.28-1.74,2.22-.44.94-.65,2.05-.65,3.3s.18,2.46.55,3.41c.37.95.89,1.68,1.57,2.18.68.5,1.5.75,2.45.75Z"/>
      <path class="cls-1" d="M206.79,24.87c-1.16,0-2.08-.23-2.77-.69-.69-.46-1.18-1.1-1.48-1.93-.29-.83-.44-1.8-.44-2.89v-9.16h-2.47v-2.1l2.62-.15.3-4.66h2.31v4.66h4.51v2.25h-4.51v9.26c0,.99.19,1.77.56,2.33.38.56,1.04.84,1.99.84.3,0,.63-.05.97-.14s.65-.2.91-.32l.55,2.1c-.47.16-.96.3-1.49.43-.53.12-1.06.18-1.58.18Z"/>
      <path class="cls-1" d="M218.48,24.87c-1.34,0-2.6-.34-3.78-1.02s-2.12-1.66-2.82-2.95c-.7-1.29-1.05-2.85-1.05-4.67s.35-3.41,1.05-4.7c.7-1.29,1.64-2.28,2.82-2.97,1.18-.69,2.44-1.04,3.78-1.04,1.02,0,1.98.19,2.91.58.92.39,1.74.95,2.45,1.71.71.75,1.27,1.66,1.67,2.74.41,1.08.61,2.3.61,3.68,0,1.83-.36,3.38-1.07,4.67-.71,1.29-1.64,2.27-2.8,2.95-1.16.68-2.42,1.02-3.78,1.02ZM218.48,22.55c.95,0,1.79-.26,2.51-.79.72-.53,1.28-1.27,1.69-2.22s.61-2.06.61-3.32-.2-2.39-.61-3.35c-.41-.95-.97-1.69-1.69-2.22-.72-.53-1.56-.79-2.51-.79s-1.79.26-2.51.79c-.72.53-1.28,1.27-1.67,2.22-.4.95-.59,2.07-.59,3.35s.2,2.36.59,3.32c.4.95.95,1.69,1.67,2.22.72.53,1.56.79,2.51.79Z"/>
      <path class="cls-1" d="M242.87,24.87c-1.46,0-2.78-.34-3.94-1.02-1.17-.68-2.09-1.66-2.77-2.95-.68-1.29-1.02-2.85-1.02-4.67s.37-3.41,1.1-4.7c.73-1.29,1.7-2.28,2.92-2.97,1.22-.69,2.53-1.04,3.93-1.04,1.08,0,2,.19,2.79.58.78.39,1.46.84,2.02,1.37l-1.4,1.83c-.47-.43-.97-.77-1.51-1.04-.54-.26-1.13-.4-1.78-.4-1,0-1.89.26-2.68.79-.79.53-1.41,1.27-1.86,2.22-.45.95-.67,2.07-.67,3.35s.22,2.36.65,3.32,1.04,1.69,1.8,2.22c.76.53,1.65.79,2.66.79.77,0,1.48-.16,2.13-.47.65-.31,1.24-.71,1.77-1.17l1.22,1.89c-.75.65-1.58,1.16-2.5,1.52-.91.37-1.87.55-2.86.55Z"/>
      <path class="cls-1" d="M257,24.87c-1.34,0-2.6-.34-3.78-1.02-1.18-.68-2.12-1.66-2.82-2.95-.7-1.29-1.05-2.85-1.05-4.67s.35-3.41,1.05-4.7,1.64-2.28,2.82-2.97c1.18-.69,2.44-1.04,3.78-1.04,1.01,0,1.98.19,2.91.58.92.39,1.74.95,2.45,1.71.71.75,1.27,1.66,1.67,2.74.41,1.08.61,2.3.61,3.68,0,1.83-.36,3.38-1.07,4.67-.71,1.29-1.64,2.27-2.8,2.95-1.16.68-2.42,1.02-3.78,1.02ZM257,22.55c.95,0,1.79-.26,2.51-.79.72-.53,1.28-1.27,1.69-2.22s.61-2.06.61-3.32-.2-2.39-.61-3.35c-.41-.95-.97-1.69-1.69-2.22-.72-.53-1.56-.79-2.51-.79s-1.79.26-2.51.79c-.72.53-1.28,1.27-1.67,2.22-.4.95-.59,2.07-.59,3.35s.2,2.36.59,3.32c.4.95.95,1.69,1.67,2.22s1.56.79,2.51.79Z"/>
      <path class="cls-1" d="M268.54,24.47V7.94h2.28l.27,2.41h.06c.73-.79,1.53-1.46,2.39-2.01.86-.55,1.78-.82,2.75-.82,1.28,0,2.27.28,2.98.85.71.57,1.24,1.34,1.58,2.31.87-.93,1.75-1.69,2.63-2.28.88-.59,1.83-.88,2.85-.88,1.68,0,2.94.55,3.76,1.66.82,1.11,1.23,2.71,1.23,4.83v10.47h-2.77v-10.11c0-1.56-.25-2.69-.75-3.38-.5-.69-1.27-1.04-2.33-1.04-.63,0-1.28.21-1.96.62-.68.42-1.42,1.05-2.21,1.9v12h-2.77v-10.11c0-1.56-.25-2.69-.75-3.38-.5-.69-1.27-1.04-2.33-1.04-.63,0-1.29.21-1.98.62-.69.42-1.41,1.05-2.16,1.9v12h-2.8Z"/>
      <path class="cls-1" d="M296.24,31.44V7.94h2.28l.27,1.92h.06c.75-.63,1.58-1.18,2.48-1.64.9-.47,1.83-.7,2.79-.7,1.42,0,2.62.35,3.61,1.05.98.7,1.72,1.68,2.22,2.94.5,1.26.75,2.74.75,4.45,0,1.89-.34,3.5-1.02,4.83-.68,1.33-1.56,2.34-2.65,3.04-1.09.7-2.26,1.05-3.52,1.05-.75,0-1.51-.17-2.28-.5s-1.53-.81-2.28-1.42l.09,2.89v5.6h-2.8ZM303.06,22.52c.91,0,1.73-.26,2.45-.78.72-.52,1.28-1.27,1.69-2.25.41-.98.61-2.16.61-3.52,0-1.22-.15-2.29-.44-3.21-.29-.92-.76-1.64-1.38-2.15-.63-.51-1.48-.76-2.56-.76-.69,0-1.4.19-2.12.58-.72.39-1.48.94-2.27,1.67v8.71c.73.63,1.45,1.07,2.16,1.32.71.25,1.33.38,1.86.38Z"/>
      <path class="cls-1" d="M317.55,24.87c-.69,0-1.25-.14-1.67-.43-.43-.28-.74-.71-.94-1.26-.2-.56-.3-1.22-.3-1.99V.24h2.8v21.13c0,.43.08.73.23.91.15.18.33.27.53.27.08,0,.16,0,.24-.02s.19-.03.33-.05l.4,2.13c-.2.06-.43.12-.67.17-.24.05-.56.08-.94.08Z"/>
      <path class="cls-1" d="M323.07,31.6c-.39,0-.74-.03-1.07-.09-.33-.06-.62-.14-.88-.24l.55-2.22c.16.06.35.12.58.18s.46.09.7.09c.93,0,1.7-.34,2.3-1.02s1.07-1.53,1.42-2.54l.37-1.25-6.64-16.56h2.89l3.35,9.16c.26.73.53,1.5.81,2.31.27.81.55,1.6.84,2.38h.15c.22-.77.45-1.56.68-2.36.23-.8.45-1.58.66-2.33l2.98-9.16h2.71l-6.21,17.93c-.39,1.08-.85,2.04-1.4,2.91-.55.86-1.21,1.55-1.98,2.06-.77.51-1.71.76-2.8.76Z"/>
      <path class="cls-1" d="M98.68,58.82l-4.6-16.53h2.83l2.47,9.56c.18.79.35,1.56.5,2.31s.31,1.51.47,2.28h.15c.18-.77.36-1.53.53-2.28s.36-1.52.56-2.31l2.59-9.56h2.71l2.59,9.56c.2.79.4,1.56.59,2.31s.38,1.51.56,2.28h.15c.16-.77.32-1.53.49-2.28s.33-1.52.52-2.31l2.41-9.56h2.68l-4.48,16.53h-3.38l-2.37-8.92c-.2-.77-.4-1.55-.58-2.33-.18-.78-.37-1.59-.55-2.42h-.15c-.18.83-.36,1.64-.53,2.44-.17.79-.37,1.58-.59,2.38l-2.34,8.86h-3.23Z"/>
      <path class="cls-1" d="M121.39,38.88c-.55,0-.99-.17-1.32-.5s-.5-.79-.5-1.35.17-.98.5-1.31c.33-.32.78-.49,1.32-.49s.99.16,1.34.49.52.76.52,1.31-.17,1.02-.52,1.35c-.35.33-.79.5-1.34.5ZM119.99,58.82v-16.53h2.8v16.53h-2.8Z"/>
      <path class="cls-1" d="M133.05,59.21c-1.16,0-2.08-.23-2.77-.69-.69-.46-1.18-1.1-1.48-1.93-.29-.83-.44-1.8-.44-2.89v-9.16h-2.47v-2.1l2.62-.15.3-4.66h2.31v4.66h4.51v2.25h-4.51v9.26c0,.99.19,1.77.56,2.33.38.56,1.04.84,1.99.84.3,0,.63-.05.97-.14s.65-.2.91-.32l.55,2.1c-.47.16-.96.3-1.49.43-.53.12-1.06.18-1.58.18Z"/>
      <path class="cls-1" d="M138.87,58.82v-24.24h2.8v6.64l-.12,3.41c.77-.77,1.59-1.43,2.47-1.96.87-.54,1.88-.81,3.01-.81,1.75,0,3.02.55,3.84,1.66.81,1.11,1.22,2.71,1.22,4.83v10.47h-2.77v-10.11c0-1.56-.25-2.69-.75-3.38-.5-.69-1.29-1.04-2.39-1.04-.85,0-1.61.21-2.28.64s-1.41,1.06-2.22,1.89v12h-2.8Z"/>
      <path class="cls-1" d="M163.47,58.82v-22.32h2.86l8.16,14.07,2.41,4.6h.15c-.1-1.12-.19-2.28-.27-3.5s-.12-2.41-.12-3.56v-11.6h2.68v22.32h-2.89l-8.13-14.1-2.41-4.57h-.12c.06,1.12.13,2.26.21,3.43.08,1.17.12,2.34.12,3.52v11.72h-2.65Z"/>
      <path class="cls-1" d="M189.62,58.82v-19.94h-6.76v-2.37h16.35v2.37h-6.76v19.94h-2.83Z"/>
      <path class="cls-1" d="M210.63,59.21c-1.97,0-3.71-.46-5.22-1.37-1.51-.91-2.7-2.23-3.56-3.96-.86-1.73-1.29-3.8-1.29-6.21,0-1.81.25-3.43.76-4.86.51-1.43,1.22-2.64,2.15-3.64.92-.99,2-1.76,3.24-2.28,1.24-.53,2.6-.79,4.08-.79,1.56,0,2.86.29,3.9.87,1.04.58,1.88,1.2,2.53,1.87l-1.52,1.83c-.57-.59-1.23-1.09-1.99-1.49-.76-.41-1.7-.61-2.82-.61-1.5,0-2.81.37-3.93,1.1-1.12.73-1.98,1.77-2.59,3.12-.61,1.35-.91,2.95-.91,4.79s.29,3.52.87,4.89,1.43,2.43,2.54,3.17c1.12.74,2.47,1.11,4.05,1.11.79,0,1.55-.12,2.27-.35.72-.23,1.3-.55,1.75-.96v-5.85h-4.75v-2.34h7.34v9.38c-.73.75-1.69,1.37-2.88,1.86s-2.52.73-4,.73Z"/>
      <path class="cls-1" d="M231.97,58.82l-5.97-16.53h2.89l3.11,9.41c.26.81.52,1.63.78,2.45.25.82.5,1.63.75,2.42h.15c.26-.79.52-1.6.78-2.42.25-.82.5-1.64.75-2.45l3.14-9.41h2.74l-5.85,16.53h-3.26Z"/>
      <path class="cls-1" d="M245.18,38.88c-.55,0-.99-.17-1.32-.5-.33-.33-.5-.79-.5-1.35s.17-.98.5-1.31.78-.49,1.32-.49,1,.16,1.34.49.52.76.52,1.31-.17,1.02-.52,1.35c-.34.33-.79.5-1.34.5ZM243.78,58.82v-16.53h2.8v16.53h-2.8Z"/>
      <path class="cls-1" d="M255.99,59.21c-1.16,0-2.28-.22-3.36-.65s-2.01-.98-2.79-1.63l1.34-1.86c.73.59,1.48,1.07,2.25,1.43.77.37,1.65.55,2.65.55,1.1,0,1.91-.25,2.45-.75.54-.5.81-1.11.81-1.84,0-.57-.19-1.04-.56-1.42-.38-.38-.85-.7-1.43-.97-.58-.27-1.17-.52-1.78-.75-.77-.3-1.53-.64-2.27-1.02-.74-.38-1.35-.86-1.83-1.46-.48-.6-.72-1.36-.72-2.3s.22-1.69.67-2.39c.45-.7,1.1-1.26,1.95-1.67.85-.42,1.88-.62,3.08-.62,1.01,0,1.96.18,2.85.55.88.37,1.64.81,2.27,1.34l-1.34,1.74c-.57-.41-1.15-.75-1.75-1.04-.6-.28-1.26-.43-1.99-.43-1.06,0-1.83.24-2.33.72-.5.48-.75,1.04-.75,1.69,0,.51.17.93.5,1.28.33.35.78.63,1.32.87.55.23,1.13.47,1.74.72.61.22,1.21.47,1.81.73.6.26,1.14.58,1.61.94.48.37.86.82,1.16,1.35.29.54.44,1.2.44,1.99,0,.89-.23,1.72-.68,2.47-.46.75-1.13,1.35-2.01,1.78s-1.98.65-3.3.65Z"/>
      <path class="cls-1" d="M269.85,59.21c-1.16,0-2.08-.23-2.77-.69-.69-.46-1.18-1.1-1.48-1.93-.29-.83-.44-1.8-.44-2.89v-9.16h-2.47v-2.1l2.62-.15.3-4.66h2.31v4.66h4.51v2.25h-4.51v9.26c0,.99.19,1.77.56,2.33.38.56,1.04.84,1.99.84.3,0,.63-.05.97-.14.34-.09.65-.2.91-.32l.55,2.1c-.47.16-.96.3-1.49.43-.53.12-1.06.18-1.58.18Z"/>
      <path class="cls-1" d="M278.64,59.21c-.91,0-1.74-.18-2.47-.55s-1.3-.9-1.72-1.6c-.42-.7-.62-1.55-.62-2.54,0-1.81.81-3.19,2.42-4.16,1.61-.96,4.19-1.64,7.72-2.02,0-.71-.1-1.39-.29-2.02-.19-.64-.53-1.16-1.02-1.55-.49-.4-1.19-.59-2.1-.59s-1.85.19-2.7.56c-.84.38-1.6.78-2.27,1.2l-1.07-1.92c.51-.32,1.1-.65,1.77-.99s1.4-.61,2.19-.84c.79-.22,1.63-.33,2.53-.33,1.34,0,2.43.28,3.27.85.84.57,1.46,1.35,1.86,2.36.4,1,.59,2.2.59,3.58v10.17h-2.28l-.24-1.98h-.09c-.77.65-1.62,1.21-2.54,1.67-.92.47-1.9.7-2.94.7ZM279.44,56.96c.79,0,1.55-.18,2.27-.55.72-.37,1.48-.9,2.27-1.61v-4.6c-1.85.2-3.32.49-4.41.87-1.1.38-1.88.83-2.34,1.37-.47.54-.7,1.17-.7,1.9,0,.95.28,1.63.85,2.02.57.4,1.26.59,2.07.59Z"/>
      <path class="cls-1" d="M298.1,58.82v-22.32h2.8v22.32h-2.8Z"/>
      <path class="cls-1" d="M306.26,58.82v-16.53h2.28l.27,2.41h.06c.79-.79,1.63-1.46,2.51-2.01.88-.55,1.89-.82,3.03-.82,1.75,0,3.02.55,3.84,1.66.81,1.11,1.22,2.71,1.22,4.83v10.47h-2.77v-10.11c0-1.56-.25-2.69-.75-3.38-.5-.69-1.29-1.04-2.39-1.04-.85,0-1.61.21-2.28.64-.67.43-1.41,1.06-2.22,1.89v12h-2.8Z"/>
      <path class="cls-1" d="M330.86,59.21c-1.46,0-2.78-.34-3.94-1.02-1.17-.68-2.09-1.66-2.77-2.95-.68-1.29-1.02-2.85-1.02-4.67s.37-3.41,1.1-4.7c.73-1.29,1.7-2.28,2.92-2.97,1.22-.69,2.53-1.04,3.93-1.04,1.08,0,2,.19,2.79.58.78.39,1.46.84,2.02,1.37l-1.4,1.83c-.47-.43-.97-.77-1.51-1.04-.54-.26-1.13-.4-1.78-.4-1,0-1.89.26-2.68.79-.79.53-1.41,1.27-1.86,2.22-.45.95-.67,2.07-.67,3.35s.22,2.36.65,3.32,1.04,1.69,1.8,2.22c.76.53,1.65.79,2.66.79.77,0,1.48-.16,2.13-.47.65-.31,1.24-.71,1.77-1.17l1.22,1.89c-.75.65-1.58,1.16-2.5,1.52-.91.37-1.87.55-2.86.55Z"/>
      <path class="cls-1" d="M340.82,59.21c-.55,0-1.02-.2-1.42-.59-.4-.4-.59-.9-.59-1.51,0-.65.2-1.17.59-1.55.4-.39.87-.58,1.42-.58s1.02.19,1.42.58c.4.39.59.9.59,1.55,0,.61-.2,1.11-.59,1.51-.4.4-.87.59-1.42.59Z"/>
    </g>
    <g>
      <path class="cls-1" d="M6.46,92.84v-22.32h12.85v2.37h-10.05v7.55h8.52v2.38h-8.52v10.02h-2.8Z"/>
      <path class="cls-1" d="M28.38,93.24c-1.34,0-2.6-.34-3.78-1.02s-2.12-1.66-2.82-2.95c-.7-1.29-1.05-2.85-1.05-4.67s.35-3.41,1.05-4.7c.7-1.29,1.64-2.28,2.82-2.97,1.18-.69,2.44-1.04,3.78-1.04,1.01,0,1.98.19,2.91.58.92.39,1.74.95,2.45,1.71s1.27,1.66,1.67,2.74c.41,1.08.61,2.3.61,3.68,0,1.83-.36,3.38-1.07,4.67-.71,1.29-1.64,2.27-2.8,2.95s-2.42,1.02-3.78,1.02ZM28.38,90.92c.95,0,1.79-.26,2.51-.79.72-.53,1.28-1.27,1.69-2.22.41-.95.61-2.06.61-3.32s-.2-2.39-.61-3.35c-.41-.95-.97-1.69-1.69-2.22-.72-.53-1.56-.79-2.51-.79s-1.79.26-2.51.79c-.72.53-1.28,1.27-1.67,2.22-.4.95-.59,2.07-.59,3.35s.2,2.36.59,3.32c.4.95.95,1.69,1.67,2.22.72.53,1.56.79,2.51.79Z"/>
      <path class="cls-1" d="M39.92,92.84v-16.53h2.28l.27,3.01h.06c.57-1.06,1.26-1.89,2.09-2.51.82-.62,1.69-.93,2.6-.93.39,0,.72.03.99.08.27.05.53.15.78.29l-.52,2.41c-.28-.08-.54-.15-.76-.2-.22-.05-.51-.08-.85-.08-.67,0-1.39.29-2.16.87-.77.58-1.43,1.57-1.98,2.97v10.63h-2.8Z"/>
      <path class="cls-1" d="M68.26,92.84l-7.12-22.32h2.95l3.62,12.09c.39,1.3.74,2.52,1.05,3.67.31,1.15.69,2.38,1.11,3.7h.12c.43-1.32.8-2.55,1.11-3.7.31-1.15.66-2.37,1.05-3.67l3.59-12.09h2.86l-7.09,22.32h-3.26Z"/>
      <path class="cls-1" d="M76.76,98.29l9.13-29.62h2.01l-9.1,29.62h-2.04Z"/>
      <path class="cls-1" d="M90.95,92.84v-22.32h6.97c1.52,0,2.87.2,4.03.59,1.17.4,2.09,1.05,2.76,1.96.67.91,1,2.14,1,3.68s-.33,2.71-1,3.7c-.67.98-1.59,1.72-2.76,2.19-1.17.48-2.51.72-4.03.72h-4.17v9.47h-2.8ZM93.75,81.12h3.75c1.75,0,3.08-.36,4.02-1.08.93-.72,1.4-1.81,1.4-3.27s-.47-2.49-1.4-3.07-2.27-.88-4.02-.88h-3.75v8.31ZM103.19,92.84l-5.85-10.2,2.22-1.49,6.79,11.69h-3.17Z"/>
      <path class="cls-1" d="M122.46,92.84v-22.32h12.85v2.37h-10.05v7h8.46v2.41h-8.46v8.13h10.38v2.41h-13.18Z"/>
      <path class="cls-1" d="M136.16,92.84l5.45-8.62-5.02-7.92h3.01l2.22,3.62c.24.47.5.93.78,1.39s.55.92.84,1.39h.15c.22-.47.46-.93.72-1.39.25-.46.5-.92.75-1.39l2.04-3.62h2.89l-5.02,8.19,5.45,8.34h-3.04l-2.44-3.87c-.28-.51-.57-1.01-.87-1.51-.29-.5-.6-.98-.93-1.45h-.15c-.26.47-.53.95-.81,1.45s-.56,1-.87,1.51l-2.22,3.87h-2.92Z"/>
      <path class="cls-1" d="M153.18,99.81v-23.5h2.28l.27,1.92h.06c.75-.63,1.58-1.18,2.48-1.64.9-.47,1.83-.7,2.79-.7,1.42,0,2.62.35,3.61,1.05.98.7,1.73,1.68,2.22,2.94.5,1.26.75,2.74.75,4.45,0,1.89-.34,3.5-1.02,4.83-.68,1.33-1.56,2.34-2.65,3.04-1.09.7-2.26,1.05-3.52,1.05-.75,0-1.51-.17-2.28-.5-.77-.33-1.53-.81-2.28-1.42l.09,2.89v5.6h-2.8ZM160,90.89c.91,0,1.73-.26,2.45-.78.72-.52,1.28-1.27,1.69-2.25.41-.98.61-2.16.61-3.52,0-1.22-.15-2.29-.44-3.21-.29-.92-.76-1.64-1.39-2.15-.63-.51-1.48-.76-2.56-.76-.69,0-1.4.19-2.12.58-.72.39-1.48.94-2.27,1.67v8.71c.73.63,1.45,1.07,2.16,1.32.71.25,1.33.38,1.86.38Z"/>
      <path class="cls-1" d="M178.27,93.24c-1.48,0-2.82-.35-4.02-1.04-1.2-.69-2.15-1.68-2.85-2.97-.7-1.29-1.05-2.84-1.05-4.64,0-1.36.2-2.57.61-3.64s.96-1.98,1.66-2.74,1.5-1.34,2.39-1.74c.89-.4,1.81-.59,2.74-.59,1.42,0,2.62.31,3.59.94.97.63,1.72,1.53,2.24,2.69.52,1.17.78,2.54.78,4.13,0,.3-.01.59-.03.85-.02.26-.05.51-.09.73h-11.14c.06,1.18.33,2.2.81,3.06.48.86,1.11,1.53,1.9,2.01.79.48,1.71.72,2.77.72.81,0,1.55-.12,2.21-.35.66-.23,1.3-.55,1.93-.96l.97,1.86c-.71.47-1.51.86-2.41,1.19-.89.32-1.9.49-3.01.49ZM173.06,83.25h8.86c0-1.66-.36-2.94-1.08-3.82-.72-.88-1.73-1.32-3.03-1.32-.77,0-1.5.2-2.18.61-.68.41-1.25.98-1.71,1.74-.46.75-.75,1.69-.87,2.8Z"/>
      <path class="cls-1" d="M187.95,92.84v-16.53h2.28l.27,3.01h.06c.57-1.06,1.26-1.89,2.09-2.51.82-.62,1.69-.93,2.6-.93.39,0,.72.03.99.08.27.05.53.15.78.29l-.52,2.41c-.28-.08-.54-.15-.76-.2-.22-.05-.51-.08-.85-.08-.67,0-1.39.29-2.16.87-.77.58-1.43,1.57-1.98,2.97v10.63h-2.8Z"/>
      <path class="cls-1" d="M200.67,72.9c-.55,0-.99-.17-1.32-.5s-.5-.79-.5-1.35.17-.98.5-1.31c.33-.32.78-.49,1.32-.49s.99.16,1.34.49.52.76.52,1.31-.17,1.02-.52,1.35c-.35.33-.79.5-1.34.5ZM199.27,92.84v-16.53h2.8v16.53h-2.8Z"/>
      <path class="cls-1" d="M213.86,93.24c-1.48,0-2.82-.35-4.02-1.04-1.2-.69-2.15-1.68-2.85-2.97-.7-1.29-1.05-2.84-1.05-4.64,0-1.36.2-2.57.61-3.64s.96-1.98,1.66-2.74,1.5-1.34,2.39-1.74c.89-.4,1.81-.59,2.74-.59,1.42,0,2.62.31,3.59.94.97.63,1.72,1.53,2.24,2.69.52,1.17.78,2.54.78,4.13,0,.3-.01.59-.03.85-.02.26-.05.51-.09.73h-11.14c.06,1.18.33,2.2.81,3.06.48.86,1.11,1.53,1.9,2.01.79.48,1.71.72,2.77.72.81,0,1.55-.12,2.21-.35.66-.23,1.3-.55,1.93-.96l.97,1.86c-.71.47-1.51.86-2.41,1.19-.89.32-1.9.49-3.01.49ZM208.65,83.25h8.86c0-1.66-.36-2.94-1.08-3.82-.72-.88-1.73-1.32-3.03-1.32-.77,0-1.5.2-2.18.61-.68.41-1.25.98-1.71,1.74-.46.75-.75,1.69-.87,2.8Z"/>
      <path class="cls-1" d="M223.54,92.84v-16.53h2.28l.27,2.41h.06c.79-.79,1.63-1.46,2.51-2.01.88-.55,1.89-.82,3.03-.82,1.75,0,3.02.55,3.84,1.66.81,1.11,1.22,2.71,1.22,4.83v10.47h-2.77v-10.11c0-1.56-.25-2.69-.75-3.38-.5-.69-1.29-1.04-2.39-1.04-.85,0-1.61.21-2.28.64-.67.43-1.41,1.06-2.22,1.89v12h-2.8Z"/>
      <path class="cls-1" d="M248.14,93.24c-1.46,0-2.78-.34-3.94-1.02-1.17-.68-2.09-1.66-2.77-2.95-.68-1.29-1.02-2.85-1.02-4.67s.37-3.41,1.1-4.7c.73-1.29,1.7-2.28,2.92-2.97,1.22-.69,2.53-1.04,3.93-1.04,1.08,0,2,.19,2.79.58.78.39,1.46.84,2.02,1.37l-1.4,1.83c-.47-.43-.97-.77-1.51-1.04-.54-.26-1.13-.4-1.78-.4-1,0-1.89.26-2.68.79-.79.53-1.41,1.27-1.86,2.22-.45.95-.67,2.07-.67,3.35s.22,2.36.65,3.32,1.04,1.69,1.8,2.22c.76.53,1.65.79,2.66.79.77,0,1.48-.16,2.13-.47.65-.31,1.24-.71,1.77-1.17l1.22,1.89c-.75.65-1.58,1.16-2.5,1.52-.91.37-1.87.55-2.86.55Z"/>
      <path class="cls-1" d="M262.54,93.24c-1.48,0-2.82-.35-4.02-1.04-1.2-.69-2.15-1.68-2.85-2.97-.7-1.29-1.05-2.84-1.05-4.64,0-1.36.2-2.57.61-3.64.41-1.07.96-1.98,1.66-2.74s1.5-1.34,2.39-1.74c.89-.4,1.81-.59,2.74-.59,1.42,0,2.62.31,3.59.94.97.63,1.72,1.53,2.24,2.69.52,1.17.78,2.54.78,4.13,0,.3-.01.59-.03.85-.02.26-.05.51-.09.73h-11.14c.06,1.18.33,2.2.81,3.06.48.86,1.11,1.53,1.9,2.01.79.48,1.71.72,2.77.72.81,0,1.55-.12,2.21-.35s1.3-.55,1.93-.96l.97,1.86c-.71.47-1.51.86-2.41,1.19-.89.32-1.9.49-3.01.49ZM257.33,83.25h8.86c0-1.66-.36-2.94-1.08-3.82-.72-.88-1.73-1.32-3.03-1.32-.77,0-1.5.2-2.18.61-.68.41-1.25.98-1.71,1.74-.46.75-.75,1.69-.87,2.8Z"/>
      <path class="cls-1" d="M293.56,93.24c-1.38,0-2.66-.26-3.85-.78s-2.22-1.27-3.09-2.27c-.87-.99-1.55-2.21-2.04-3.64-.49-1.43-.73-3.05-.73-4.86s.25-3.43.75-4.86c.5-1.43,1.19-2.64,2.09-3.64.89-.99,1.94-1.76,3.14-2.28,1.2-.53,2.51-.79,3.93-.79s2.56.28,3.59.84c1.04.56,1.88,1.19,2.53,1.9l-1.52,1.83c-.59-.63-1.26-1.14-2.01-1.52-.75-.39-1.6-.58-2.56-.58-1.4,0-2.63.37-3.68,1.1-1.06.73-1.88,1.77-2.47,3.12-.59,1.35-.88,2.95-.88,4.79s.28,3.52.85,4.89,1.37,2.43,2.41,3.17c1.04.74,2.26,1.11,3.68,1.11,1.06,0,2-.22,2.85-.67.84-.45,1.62-1.07,2.33-1.86l1.55,1.8c-.87,1.02-1.87,1.8-2.98,2.36s-2.41.84-3.87.84Z"/>
      <path class="cls-1" d="M310.52,93.24c-1.48,0-2.82-.35-4.02-1.04-1.2-.69-2.15-1.68-2.85-2.97-.7-1.29-1.05-2.84-1.05-4.64,0-1.36.2-2.57.61-3.64.41-1.07.96-1.98,1.66-2.74s1.5-1.34,2.39-1.74c.89-.4,1.81-.59,2.74-.59,1.42,0,2.62.31,3.59.94.97.63,1.72,1.53,2.24,2.69.52,1.17.78,2.54.78,4.13,0,.3-.01.59-.03.85-.02.26-.05.51-.09.73h-11.14c.06,1.18.33,2.2.81,3.06.48.86,1.11,1.53,1.9,2.01.79.48,1.71.72,2.77.72.81,0,1.55-.12,2.21-.35s1.3-.55,1.93-.96l.97,1.86c-.71.47-1.51.86-2.41,1.19-.89.32-1.9.49-3.01.49ZM305.31,83.25h8.86c0-1.66-.36-2.94-1.08-3.82-.72-.88-1.73-1.32-3.03-1.32-.77,0-1.5.2-2.18.61-.68.41-1.25.98-1.71,1.74-.46.75-.75,1.69-.87,2.8Z"/>
      <path class="cls-1" d="M320.2,92.84v-16.53h2.28l.27,2.41h.06c.79-.79,1.63-1.46,2.51-2.01.88-.55,1.89-.82,3.03-.82,1.75,0,3.02.55,3.84,1.66.81,1.11,1.22,2.71,1.22,4.83v10.47h-2.77v-10.11c0-1.56-.25-2.69-.75-3.38-.5-.69-1.29-1.04-2.39-1.04-.85,0-1.61.21-2.28.64-.67.43-1.41,1.06-2.22,1.89v12h-2.8Z"/>
      <path class="cls-1" d="M343.46,93.24c-1.16,0-2.08-.23-2.77-.69-.69-.46-1.18-1.1-1.48-1.93-.29-.83-.44-1.8-.44-2.89v-9.16h-2.47v-2.1l2.62-.15.3-4.66h2.31v4.66h4.51v2.25h-4.51v9.26c0,.99.19,1.77.56,2.33.38.56,1.04.84,1.99.84.3,0,.63-.05.97-.14.34-.09.65-.2.91-.32l.55,2.1c-.47.16-.96.3-1.49.43-.53.12-1.06.18-1.58.18Z"/>
      <path class="cls-1" d="M355.43,93.24c-1.48,0-2.82-.35-4.02-1.04-1.2-.69-2.15-1.68-2.85-2.97-.7-1.29-1.05-2.84-1.05-4.64,0-1.36.2-2.57.61-3.64.41-1.07.96-1.98,1.66-2.74s1.5-1.34,2.39-1.74c.89-.4,1.81-.59,2.74-.59,1.42,0,2.62.31,3.59.94.97.63,1.72,1.53,2.24,2.69.52,1.17.78,2.54.78,4.13,0,.3-.01.59-.03.85-.02.26-.05.51-.09.73h-11.14c.06,1.18.33,2.2.81,3.06.48.86,1.11,1.53,1.9,2.01.79.48,1.71.72,2.77.72.81,0,1.55-.12,2.21-.35s1.3-.55,1.93-.96l.97,1.86c-.71.47-1.51.86-2.41,1.19-.89.32-1.9.49-3.01.49ZM350.22,83.25h8.86c0-1.66-.36-2.94-1.08-3.82-.72-.88-1.73-1.32-3.03-1.32-.77,0-1.5.2-2.18.61-.68.41-1.25.98-1.71,1.74-.46.75-.75,1.69-.87,2.8Z"/>
      <path class="cls-1" d="M365.11,92.84v-16.53h2.28l.27,3.01h.06c.57-1.06,1.26-1.89,2.09-2.51s1.69-.93,2.6-.93c.38,0,.71.03.99.08.27.05.53.15.78.29l-.52,2.41c-.28-.08-.54-.15-.76-.2-.22-.05-.51-.08-.85-.08-.67,0-1.39.29-2.16.87s-1.43,1.57-1.98,2.97v10.63h-2.8Z"/>
      <path class="cls-1" d="M393.94,93.24c-1.75,0-3.03-.55-3.85-1.64-.82-1.1-1.23-2.7-1.23-4.81v-10.47h2.8v10.14c0,1.52.24,2.63.73,3.33.49.7,1.28,1.05,2.38,1.05.85,0,1.61-.22,2.28-.67.67-.45,1.4-1.16,2.19-2.13v-11.72h2.77v16.53h-2.31l-.21-2.59h-.09c-.77.89-1.59,1.61-2.45,2.16s-1.86.82-3,.82Z"/>
      <path class="cls-1" d="M411.42,93.24c-1.16,0-2.28-.22-3.36-.65s-2.01-.98-2.79-1.63l1.34-1.86c.73.59,1.48,1.07,2.25,1.43.77.37,1.65.55,2.65.55,1.1,0,1.91-.25,2.45-.75.54-.5.81-1.11.81-1.84,0-.57-.19-1.04-.56-1.42-.38-.38-.85-.7-1.43-.97-.58-.27-1.17-.52-1.78-.75-.77-.3-1.53-.64-2.27-1.02-.74-.38-1.35-.86-1.83-1.46-.48-.6-.72-1.36-.72-2.3s.22-1.69.67-2.39c.45-.7,1.1-1.26,1.95-1.67.85-.42,1.88-.62,3.08-.62,1.01,0,1.96.18,2.85.55.88.37,1.64.81,2.27,1.34l-1.34,1.74c-.57-.41-1.15-.75-1.75-1.04-.6-.28-1.26-.43-1.99-.43-1.06,0-1.83.24-2.33.72-.5.48-.75,1.04-.75,1.69,0,.51.17.93.5,1.28.33.35.78.63,1.32.87.55.23,1.13.47,1.74.72.61.22,1.21.47,1.81.73.6.26,1.14.58,1.61.94.48.37.86.82,1.16,1.35.29.54.44,1.2.44,1.99,0,.89-.23,1.72-.68,2.47-.46.75-1.13,1.35-2.01,1.78s-1.98.65-3.3.65Z"/>
      <path class="cls-1" d="M427.55,93.24c-1.48,0-2.82-.35-4.02-1.04-1.2-.69-2.15-1.68-2.85-2.97-.7-1.29-1.05-2.84-1.05-4.64,0-1.36.2-2.57.61-3.64.41-1.07.96-1.98,1.66-2.74s1.5-1.34,2.39-1.74c.89-.4,1.81-.59,2.74-.59,1.42,0,2.62.31,3.59.94.97.63,1.72,1.53,2.24,2.69.52,1.17.78,2.54.78,4.13,0,.3-.01.59-.03.85-.02.26-.05.51-.09.73h-11.14c.06,1.18.33,2.2.81,3.06.48.86,1.11,1.53,1.9,2.01.79.48,1.71.72,2.77.72.81,0,1.55-.12,2.21-.35s1.3-.55,1.93-.96l.97,1.86c-.71.47-1.51.86-2.41,1.19-.89.32-1.9.49-3.01.49ZM422.35,83.25h8.86c0-1.66-.36-2.94-1.08-3.82-.72-.88-1.73-1.32-3.03-1.32-.77,0-1.5.2-2.18.61-.68.41-1.25.98-1.71,1.74-.46.75-.75,1.69-.87,2.8Z"/>
    </g>
    <path class="cls-1" d="M429.29,29v7.78h8.65v10.74h0c-.4,4.42-4.12,7.89-8.65,7.89s-8.24-3.47-8.65-7.89h0V15.76c.36-4.46,4.09-7.98,8.65-7.98,4.8,0,8.69,3.89,8.69,8.69h7.74c0-9.07-7.36-16.43-16.43-16.43-4.59,0-8.73,1.88-11.71,4.92V0h-35.26v.04h-7.41v39.69L361.06,0l-.24.08v-.08h-7.78v63.12h7.78V22.96l14.01,40.23.1-.04h7.74V7.78h13.37v55.38h7.78V7.78h11.53c-1.44,2.31-2.32,5-2.46,7.89h-.04v31.85h.02c.42,8.7,7.6,15.63,16.41,15.63s15.99-6.93,16.41-15.63h.02v-18.52h-16.43Z"/>
  </g>
</svg>