<?xml version="1.0" encoding="UTF-8"?>
<svg xmlns="http://www.w3.org/2000/svg" viewBox="0 0 512 255.98">
  <defs>
    <style>
      .cls-1 {
        stroke-width: 0px;
        fill: #fff;
      }
    </style>
  </defs>
  <g >
    <g>
      <path class="cls-1" d="M167.09,113.57c.11,8.7,1.52,17.07,3.95,24.97H28.48c4.46-8.62,9.39-16.96,14.78-24.97h123.82Z"/>
      <path class="cls-1" d="M168.11,98.35H54.28c6.89-8.81,14.35-17.14,22.32-24.97h99.29c-3.77,7.75-6.41,16.16-7.79,24.97Z"/>
      <path class="cls-1" d="M214.82,33.23c-11.6,6.05-21.67,14.6-29.53,24.93h-91.75c11.31-9.31,23.45-17.65,36.27-24.93h85.01Z"/>
      <path class="cls-1" d="M350.49,18.01h-188.98C190.75,6.38,222.64,0,256.02,0s65.26,6.38,94.47,18.01Z"/>
      <path class="cls-1" d="M418.47,58.16h-91.75c-7.83-10.33-17.94-18.88-29.53-24.93h85.01c12.83,7.25,24.97,15.62,36.27,24.93Z"/>
      <path class="cls-1" d="M343.89,98.35c-1.38-8.81-4.02-17.21-7.79-24.97h99.29c7.97,7.83,15.44,16.16,22.32,24.97h-113.82Z"/>
      <path class="cls-1" d="M483.52,138.54h-142.56c2.43-7.9,3.84-16.27,3.95-24.97h123.82c5.4,8.01,10.33,16.34,14.78,24.97Z"/>
      <path class="cls-1" d="M197.1,178.69H11.89c2.68-8.52,5.8-16.85,9.35-24.93h156.18c5.04,9.46,11.7,17.9,19.68,24.93Z"/>
      <path class="cls-1" d="M500.11,178.69h-185.21c7.97-7.03,14.64-15.47,19.68-24.93h156.18c3.55,8.08,6.67,16.42,9.35,24.93Z"/>
      <path class="cls-1" d="M509.32,218.87H2.68c1.23-8.48,2.86-16.78,4.89-24.97h213.55c10.73,4.57,22.5,7.1,34.9,7.1s24.13-2.54,34.86-7.1h213.55c2.03,8.19,3.66,16.49,4.89,24.97Z"/>
      <path class="cls-1" d="M512,255.98H0c0-7.36.33-14.68.94-21.89h510.12c.62,7.21.94,14.53.94,21.89Z"/>
    </g>
  </g>
</svg>